<svg width="28" height="20" viewBox="0 0 28 20" fill="none" xmlns="http://www.w3.org/2000/svg">
<g clip-path="url(#clip0_346_58812)">
<path d="M6.33807 15.6412C12.2974 17.9669 17.3689 18.4199 23.1159 14.7999C23.0738 14.8631 21.9369 16.5473 18.9474 17.4104C19.579 18.2736 20.4422 19.263 20.4422 19.263C22.358 19.263 24.2317 18.7157 25.8527 17.663C27.1159 16.8209 27.8316 15.3683 27.6843 13.8525C27.4316 11.263 26.8211 8.73673 25.8738 6.31573C24.6738 3.15786 21.7896 0.968356 18.4422 0.652543C18.1474 0.631481 17.9369 0.631481 17.8106 0.631481L17.4738 0.968293C21.3264 2.06304 23.2423 3.76829 23.2843 3.83148C17.3685 0.84198 10.3791 0.799918 4.42114 3.70517C4.42114 3.70517 6.31589 1.83148 10.5053 0.84198L10.2527 0.589355C9.81057 0.589355 9.38951 0.63148 8.94745 0.694605C5.8527 1.22092 3.26326 3.34723 2.14745 6.27354C1.17901 8.79986 0.54745 11.4525 0.315887 14.1472C0.189575 15.5788 0.863262 16.9894 2.0422 17.8104C3.60007 18.842 5.4527 19.3894 7.32639 19.3894C7.32639 19.3894 8.08426 18.3999 8.8422 17.5157C6.00007 16.6735 4.8422 14.9894 4.82114 14.9262L5.35601 15.1993C5.67576 15.3627 6.00357 15.5107 6.33807 15.6412ZM9.6422 13.8104C8.27376 13.7683 7.20007 12.6104 7.2422 11.2209C7.28432 9.91567 8.33695 8.86304 9.6422 8.82092C11.0106 8.86304 12.0843 10.0209 12.0422 11.4104C11.979 12.7157 10.9474 13.7684 9.6422 13.8104ZM18.2316 13.8104C16.8632 13.7683 15.7895 12.6104 15.8316 11.2209C15.8738 9.91567 16.9264 8.86304 18.2316 8.82092C19.6001 8.86304 20.6738 10.0209 20.6316 11.4104C20.5896 12.7157 19.5369 13.7684 18.2316 13.8104Z" fill="#FBB92C"/>
</g>
<defs>
<clipPath id="clip0_346_58812">
<rect width="28" height="20" fill="white"/>
</clipPath>
</defs>
</svg>
