<?xml version="1.0" standalone="no"?>
<!DOCTYPE svg PUBLIC "-//W3C//DTD SVG 1.1//EN" "http://www.w3.org/Graphics/SVG/1.1/DTD/svg11.dtd" >
<svg xmlns="http://www.w3.org/2000/svg" xmlns:xlink="http://www.w3.org/1999/xlink" version="1.1">
<metadata>
Created by FontForge 20170731 at Mon Oct 11 03:10:56 1999
 By Aleksey,,,
Copyright (c) Swamp Design (http://surf.to/swamp) &#38; Dubina Nikolay (http://www.wt.aha.ru/d-studio/), 1999. All rights reserved.
</metadata>
<defs>
<font id="DSPixelCyr" horiz-adv-x="578" >
  <font-face 
    font-family="DS Pixel Cyr"
    font-weight="400"
    font-stretch="normal"
    units-per-em="1000"
    panose-1="2 0 5 3 2 0 0 2 0 4"
    ascent="800"
    descent="-200"
    x-height="720"
    cap-height="720"
    bbox="0 -146 858 942"
    underline-thickness="20"
    underline-position="-163"
    unicode-range="U+0020-00FF"
  />
<missing-glyph horiz-adv-x="500" 
 />
    <glyph glyph-name=".notdef" horiz-adv-x="500" 
 />
    <glyph glyph-name=".null" horiz-adv-x="0" 
 />
    <glyph glyph-name="nonmarkingreturn" horiz-adv-x="500" 
 />
    <glyph glyph-name="space" unicode=" " horiz-adv-x="288" 
 />
    <glyph glyph-name="exclam" unicode="!" horiz-adv-x="288" 
d="M142 288v432h-142v-432h142zM142 0v142h-142v-142h142z" />
    <glyph glyph-name="quotedbl" unicode="&#x22;" 
d="M432 584v146h-146v-146h146zM144 584v146h-144v-146h144z" />
    <glyph glyph-name="numbersign" unicode="#" horiz-adv-x="870" 
d="M724 137v147h-144v143h144v143h-144v150h-145v-150h-141v150h-145v-150h-149v-143h149v-143h-149v-146h149v-138h145v138h141v-138h145v138zM435 284h-141v143h141v-143z" />
    <glyph glyph-name="dollar" unicode="$" horiz-adv-x="576" 
 />
    <glyph glyph-name="percent" unicode="%" horiz-adv-x="724" 
d="M292 0v288h142v432h-142v-286h-146v-434h146zM578 0v144h-144v-144h144zM146 578v142h-146v-142h146z" />
    <glyph glyph-name="ampersand" unicode="&#x26;" horiz-adv-x="720" 
d="M432 0v288h144v146h-144v286h-432v-286h146v-146h140v-147h-140v147h-146v-288h432zM286 573v-139h-140v139h140z" />
    <glyph glyph-name="quotesingle" unicode="'" horiz-adv-x="285" 
d="M139 434v286h-139v-286h139z" />
    <glyph glyph-name="parenleft" unicode="(" horiz-adv-x="432" 
d="M286 0v144h-144v429h-142v-429h142v-144h144zM286 720h-144v-147h144v147z" />
    <glyph glyph-name="parenright" unicode=")" horiz-adv-x="432" 
d="M144 720h-144v-147h144v-430h142v430h-142v147zM144 0v143h-144v-143h144z" />
    <glyph glyph-name="asterisk" unicode="*" horiz-adv-x="579" 
d="M0 575v-141h144v-146h144v-145h145v145h-145v146h-144v141h-144zM0 288v-145h144v145h-144zM433 434v141h-145v-141h145z" />
    <glyph glyph-name="plus" unicode="+" horiz-adv-x="580" 
d="M288 147v141h146v146h-146v145h-144v-145h-144v-146h144v-141h144z" />
    <glyph glyph-name="comma" unicode="," horiz-adv-x="436" 
d="M290 0v288h-146v-144h-144v-144h290z" />
    <glyph glyph-name="hyphen" unicode="-" horiz-adv-x="577" 
d="M431 288v146h-431v-146h431z" />
    <glyph glyph-name="period" unicode="." horiz-adv-x="288" 
d="M142 0v142h-142v-142h142z" />
    <glyph glyph-name="slash" unicode="/" horiz-adv-x="436" 
d="M146 434h-146v-434h146v288h144v432h-144v-286z" />
    <glyph glyph-name="zero" unicode="0" 
d="M432 0v720h-432v-720h432zM290 142h-145v433h145v-433z" />
    <glyph glyph-name="one" unicode="1" horiz-adv-x="433" 
d="M287 0v720h-287v-145h143v-575h144z" />
    <glyph glyph-name="two" unicode="2" 
d="M432 0v142h-286v146h286v432h-432v-145h290v-141h-290v-434h432z" />
    <glyph glyph-name="three" unicode="3" 
d="M432 0v720h-432v-145h289v-141h-146v-146h146v-146h-289v-142h432z" />
    <glyph glyph-name="four" unicode="4" horiz-adv-x="577" 
d="M431 0v720h-145v-286h-142v286h-144v-432h286v-288h145z" />
    <glyph glyph-name="five" unicode="5" 
d="M432 0v434h-290v141h290v145h-432v-432h287v-146h-287v-142h432z" />
    <glyph glyph-name="six" unicode="6" horiz-adv-x="580" 
d="M434 0v434h-288v286h-146v-720h434zM290 142h-144v146h144v-146z" />
    <glyph glyph-name="seven" unicode="7" horiz-adv-x="581" 
d="M435 0v720h-435v-145h289v-575h146z" />
    <glyph glyph-name="eight" unicode="8" horiz-adv-x="580" 
d="M434 0v720h-434v-720h434zM290 142h-144v146h144v-146zM290 434h-144v141h144v-141z" />
    <glyph glyph-name="nine" unicode="9" horiz-adv-x="575" 
d="M429 0v720h-429v-432h285v-288h144zM285 434h-143v141h143v-141z" />
    <glyph glyph-name="colon" unicode=":" horiz-adv-x="288" 
d="M0 288v-144h142v144h-142zM0 574v-142h142v142h-142z" />
    <glyph glyph-name="semicolon" unicode=";" horiz-adv-x="288" 
d="M142 -146v299h-142v-299h142zM142 434v140h-142v-140h142z" />
    <glyph glyph-name="less" unicode="&#x3c;" horiz-adv-x="577" 
d="M0 429v-142h143v-144h142v-143h146v143h-146v144h-142v142h-143zM431 720h-146v-146h146v146zM143 574v-145h142v145h-142z" />
    <glyph glyph-name="equal" unicode="=" horiz-adv-x="575" 
d="M429 144v144h-429v-144h429zM429 430v143h-429v-143h429z" />
    <glyph glyph-name="greater" unicode="&#x3e;" horiz-adv-x="577" 
d="M0 720v-146h146v-145h142v-142h143v142h-143v145h-142v146h-146zM0 143v-143h146v143h-146zM146 287v-144h142v144h-142z" />
    <glyph glyph-name="question" unicode="?" horiz-adv-x="577" 
d="M431 288v432h-431v-145h288v-141h-144v-146h287zM288 0v142h-144v-142h144z" />
    <glyph glyph-name="at" unicode="@" horiz-adv-x="865" 
d="M577 575v-141h-289v-434h289v143h-146v145h146v-145h142v577h-576v-145h434zM0 575v-575h143v575h-143z" />
    <glyph glyph-name="A" unicode="A" 
d="M432 0v720h-432v-720h142v288h144v-288h146zM286 434h-144v141h144v-141z" />
    <glyph glyph-name="B" unicode="B" horiz-adv-x="721" 
d="M575 0v434h-146v286h-429v-720h575zM429 142h-287v146h287v-146zM288 434h-146v141h146v-141z" />
    <glyph glyph-name="C" unicode="C" horiz-adv-x="576" 
d="M430 0v142h-287v433h287v145h-430v-720h430z" />
    <glyph glyph-name="D" unicode="D" horiz-adv-x="574" 
d="M144 142v433h142v-433h142v433h-142v145h-286v-720h286v142h-142z" />
    <glyph glyph-name="E" unicode="E" horiz-adv-x="579" 
d="M433 0v142h-290v146h147v146h-147v141h290v145h-433v-720h433z" />
    <glyph glyph-name="F" unicode="F" horiz-adv-x="579" 
d="M142 0v288h291v146h-291v141h291v145h-433v-720h142z" />
    <glyph glyph-name="G" unicode="G" horiz-adv-x="724" 
d="M578 0v434h-291v-146h145v-146h-288v433h434v145h-578v-720h578z" />
    <glyph glyph-name="H" unicode="H" 
d="M432 0v720h-144v-286h-146v286h-142v-720h142v288h146v-288h144z" />
    <glyph glyph-name="I" unicode="I" horiz-adv-x="290" 
d="M144 0v720h-144v-720h144z" />
    <glyph glyph-name="J" unicode="J" horiz-adv-x="577" 
d="M431 0v720h-431v-145h286v-433h-142v146h-144v-288h431z" />
    <glyph glyph-name="K" unicode="K" horiz-adv-x="579" 
d="M433 0v288h-145v146h-144v286h-144v-720h144v288h144v-288h145zM433 434v286h-145v-286h145z" />
    <glyph glyph-name="L" unicode="L" 
d="M432 0v142h-288v578h-144v-720h432z" />
    <glyph glyph-name="M" unicode="M" horiz-adv-x="863" 
d="M0 720v-720h142v434h146v-146h144v146h-144v141h-146v145h-142zM576 434v-434h141v720h-141v-145h-144v-141h144z" />
    <glyph glyph-name="N" unicode="N" horiz-adv-x="724" 
d="M578 0v720h-144v-286h-144v141h-144v145h-146v-720h146v434h144v-146h144v-288h144z" />
    <glyph glyph-name="O" unicode="O" 
d="M432 0v720h-432v-720h432zM290 142h-145v433h145v-433z" />
    <glyph glyph-name="P" unicode="P" horiz-adv-x="579" 
d="M433 288v432h-433v-720h144v288h289zM286 434h-142v141h142v-141z" />
    <glyph glyph-name="Q" unicode="Q" horiz-adv-x="721" 
d="M575 0v142h-143v578h-432v-720h575zM290 142h-145v433h145v-433z" />
    <glyph glyph-name="R" unicode="R" horiz-adv-x="580" 
d="M434 0v288h-146v146h-144v141h144v-141h146v286h-434v-720h144v288h144v-288h146z" />
    <glyph glyph-name="S" unicode="S" 
d="M432 0v434h-286v141h286v145h-432v-432h290v-146h-290v-142h432z" />
    <glyph glyph-name="T" unicode="T" horiz-adv-x="576" 
d="M288 0v575h142v145h-430v-145h146v-575h142z" />
    <glyph glyph-name="U" unicode="U" 
d="M432 0v720h-142v-578h-146v578h-144v-720h432z" />
    <glyph glyph-name="V" unicode="V" 
d="M288 0v142h144v578h-144v-432h-146v432h-142v-578h142v-142h146z" />
    <glyph glyph-name="W" unicode="W" horiz-adv-x="863" 
d="M717 0v720h-142v-432h-146v146h-144v-146h144v-146h146v-142h142zM141 288v432h-141v-720h141v142h144v146h-144z" />
    <glyph glyph-name="X" unicode="X" horiz-adv-x="579" 
d="M433 0v288h-145v146h-144v286h-144v-286h144v-146h144v-288h145zM144 0v288h-144v-288h144zM433 434v286h-145v-286h145z" />
    <glyph glyph-name="Y" unicode="Y" 
d="M288 0v288h144v432h-144v-286h-146v286h-142v-432h142v-288h146z" />
    <glyph glyph-name="Z" unicode="Z" horiz-adv-x="579" 
d="M433 434v286h-433v-145h288v-141h145zM433 0v142h-287v146h-146v-288h433zM288 288v146h-142v-146h142z" />
    <glyph glyph-name="bracketleft" unicode="[" horiz-adv-x="437" 
d="M291 0v142h-148v433h148v145h-291v-720h291z" />
    <glyph glyph-name="backslash" unicode="\" horiz-adv-x="436" 
d="M290 0v434h-144v286h-146v-432h146v-288h144z" />
    <glyph glyph-name="bracketright" unicode="]" horiz-adv-x="437" 
d="M291 0v720h-291v-145h148v-433h-148v-142h291z" />
    <glyph glyph-name="asciicircum" unicode="^" horiz-adv-x="580" 
d="M434 434v141h-144v145h-144v-145h144v-141h144zM0 575v-141h146v141h-146z" />
    <glyph glyph-name="underscore" unicode="_" horiz-adv-x="576" 
d="M430 0v142h-430v-142h430z" />
    <glyph glyph-name="grave" unicode="`" horiz-adv-x="288" 
d="M142 434v286h-142v-286h142z" />
    <glyph glyph-name="a" unicode="a" 
d="M432 0v720h-432v-720h142v288h144v-288h146zM286 434h-144v141h144v-141z" />
    <glyph glyph-name="b" unicode="b" horiz-adv-x="721" 
d="M575 0v434h-146v286h-429v-720h575zM429 142h-287v146h287v-146zM288 434h-146v141h146v-141z" />
    <glyph glyph-name="c" unicode="c" horiz-adv-x="576" 
d="M430 0v142h-287v433h287v145h-430v-720h430z" />
    <glyph glyph-name="d" unicode="d" horiz-adv-x="574" 
d="M144 142v433h142v-433h142v433h-142v145h-286v-720h286v142h-142z" />
    <glyph glyph-name="e" unicode="e" horiz-adv-x="579" 
d="M433 0v142h-290v146h147v146h-147v141h290v145h-433v-720h433z" />
    <glyph glyph-name="f" unicode="f" horiz-adv-x="579" 
d="M142 0v288h291v146h-291v141h291v145h-433v-720h142z" />
    <glyph glyph-name="g" unicode="g" horiz-adv-x="724" 
d="M578 0v434h-291v-146h145v-146h-288v433h434v145h-578v-720h578z" />
    <glyph glyph-name="h" unicode="h" 
d="M432 0v720h-144v-286h-146v286h-142v-720h142v288h146v-288h144z" />
    <glyph glyph-name="i" unicode="i" horiz-adv-x="290" 
d="M144 0v720h-144v-720h144z" />
    <glyph glyph-name="j" unicode="j" horiz-adv-x="577" 
d="M431 0v720h-431v-145h286v-433h-142v146h-144v-288h431z" />
    <glyph glyph-name="k" unicode="k" horiz-adv-x="579" 
d="M433 0v288h-145v146h-144v286h-144v-720h144v288h144v-288h145zM433 434v286h-145v-286h145z" />
    <glyph glyph-name="l" unicode="l" 
d="M432 0v142h-288v578h-144v-720h432z" />
    <glyph glyph-name="m" unicode="m" horiz-adv-x="863" 
d="M0 720v-720h142v434h146v-146h144v146h-144v141h-146v145h-142zM576 434v-434h141v720h-141v-145h-144v-141h144z" />
    <glyph glyph-name="n" unicode="n" horiz-adv-x="724" 
d="M578 0v720h-144v-286h-144v141h-144v145h-146v-720h146v434h144v-146h144v-288h144z" />
    <glyph glyph-name="o" unicode="o" 
d="M432 0v720h-432v-720h432zM290 142h-145v433h145v-433z" />
    <glyph glyph-name="p" unicode="p" horiz-adv-x="579" 
d="M433 288v432h-433v-720h144v288h289zM286 434h-142v141h142v-141z" />
    <glyph glyph-name="q" unicode="q" horiz-adv-x="721" 
d="M575 0v142h-143v578h-432v-720h575zM290 142h-145v433h145v-433z" />
    <glyph glyph-name="r" unicode="r" horiz-adv-x="580" 
d="M434 0v288h-146v146h-144v141h144v-141h146v286h-434v-720h144v288h144v-288h146z" />
    <glyph glyph-name="s" unicode="s" 
d="M432 0v434h-286v141h286v145h-432v-432h290v-146h-290v-142h432z" />
    <glyph glyph-name="t" unicode="t" horiz-adv-x="576" 
d="M288 0v575h142v145h-430v-145h146v-575h142z" />
    <glyph glyph-name="u" unicode="u" 
d="M432 0v720h-142v-578h-146v578h-144v-720h432z" />
    <glyph glyph-name="v" unicode="v" 
d="M288 0v142h144v578h-144v-432h-146v432h-142v-578h142v-142h146z" />
    <glyph glyph-name="w" unicode="w" horiz-adv-x="863" 
d="M717 0v720h-142v-432h-146v146h-144v-146h144v-146h146v-142h142zM141 288v432h-141v-720h141v142h144v146h-144z" />
    <glyph glyph-name="x" unicode="x" horiz-adv-x="579" 
d="M433 0v288h-145v146h-144v286h-144v-286h144v-146h144v-288h145zM144 0v288h-144v-288h144zM433 434v286h-145v-286h145z" />
    <glyph glyph-name="y" unicode="y" 
d="M288 0v288h144v432h-144v-286h-146v286h-142v-432h142v-288h146z" />
    <glyph glyph-name="z" unicode="z" horiz-adv-x="579" 
d="M433 434v286h-433v-145h288v-141h145zM433 0v142h-287v146h-146v-288h433zM288 288v146h-142v-146h142z" />
    <glyph glyph-name="braceleft" unicode="{" 
d="M432 0v142h-142v146h-146v146h-144v-146h144v-288h288zM290 434v141h142v145h-288v-286h146z" />
    <glyph glyph-name="bar" unicode="|" horiz-adv-x="290" 
d="M144 -135v855h-144v-855h144z" />
    <glyph glyph-name="braceright" unicode="}" 
d="M432 288v146h-144v286h-288v-145h142v-141h146v-146h144zM142 288v-146h-142v-142h288v288h-146z" />
    <glyph glyph-name="asciitilde" unicode="~" horiz-adv-x="720" 
d="M574 434v141h-142v-141h-146v141h-142v-141h-144v-146h144v146h142v-146h146v146h142z" />
    <glyph glyph-name="FL2013h" horiz-adv-x="577" 
d="M431 288v146h-431v-146h431z" />
    <glyph glyph-name="FL2013h" unicode="&#x2013;" horiz-adv-x="577" 
d="M431 288v146h-431v-146h431z" />
    <glyph glyph-name="FL00A0h" unicode="&#xa0;" horiz-adv-x="288" 
 />
    <glyph glyph-name="brokenbar" unicode="&#xa6;" horiz-adv-x="291" 
d="M145 -135v855h-145v-855h145z" />
    <glyph glyph-name="afii10023" unicode="&#xa8;" 
d="M0 720v-720h432v142h-289v146h146v146h-146v141h289v145h-432zM290 942v-144h142v144h-142zM0 942v-144h142v144h-142z" />
    <glyph glyph-name="afii10023" unicode="&#x401;" 
d="M0 720v-720h432v142h-289v146h146v146h-146v141h289v145h-432zM290 942v-144h142v144h-142zM0 942v-144h142v144h-142z" />
    <glyph glyph-name="guillemotleft" unicode="&#xab;" horiz-adv-x="865" 
d="M431 0v142h-146v146h434v146h-434v141h-142v-141h-143v-146h143v-146h142v-142h146zM431 575v145h-146v-145h146z" />
    <glyph glyph-name="afii10071" unicode="&#xb8;" 
d="M0 720v-720h432v142h-289v146h146v146h-146v141h289v145h-432zM290 942v-144h142v144h-142zM0 942v-144h142v144h-142z" />
    <glyph glyph-name="afii10071" unicode="&#x451;" 
d="M0 720v-720h432v142h-289v146h146v146h-146v141h289v145h-432zM290 942v-144h142v144h-142zM0 942v-144h142v144h-142z" />
    <glyph glyph-name="guillemotright" unicode="&#xbb;" horiz-adv-x="865" 
d="M576 142v146h143v146h-143v141h-142v145h-146v-145h146v-141h-434v-146h434v-146h142zM434 0v142h-146v-142h146z" />
    <glyph glyph-name="afii10017" unicode="&#xc0;" 
d="M432 0v720h-432v-720h142v288h144v-288h146zM286 434h-144v141h144v-141z" />
    <glyph glyph-name="afii10017" unicode="&#x410;" 
d="M432 0v720h-432v-720h142v288h144v-288h146zM286 434h-144v141h144v-141z" />
    <glyph glyph-name="afii10018" unicode="&#xc1;" horiz-adv-x="721" 
d="M575 0v434h-431v141h285v145h-429v-720h575zM429 142h-285v146h285v-146z" />
    <glyph glyph-name="afii10018" unicode="&#x411;" horiz-adv-x="721" 
d="M575 0v434h-431v141h285v145h-429v-720h575zM429 142h-285v146h285v-146z" />
    <glyph glyph-name="afii10019" unicode="&#xc2;" horiz-adv-x="721" 
d="M575 0v434h-146v286h-429v-720h575zM429 142h-287v146h287v-146zM288 434h-146v141h146v-141z" />
    <glyph glyph-name="afii10019" unicode="&#x412;" horiz-adv-x="721" 
d="M575 0v434h-146v286h-429v-720h575zM429 142h-287v146h287v-146zM288 434h-146v141h146v-141z" />
    <glyph glyph-name="afii10020" unicode="&#xc3;" 
d="M143 0v575h289v145h-432v-720h143z" />
    <glyph glyph-name="afii10020" unicode="&#x413;" 
d="M143 0v575h289v145h-432v-720h143z" />
    <glyph glyph-name="afii10021" unicode="&#xc4;" horiz-adv-x="861" 
d="M430 142h-145v433h-145v-433h-140v-142h715v142h-142v578h-288v-145h145v-433z" />
    <glyph glyph-name="afii10021" unicode="&#x414;" horiz-adv-x="861" 
d="M430 142h-145v433h-145v-433h-140v-142h715v142h-142v578h-288v-145h145v-433z" />
    <glyph glyph-name="afii10022" unicode="&#xc5;" 
d="M432 0v142h-289v146h146v146h-146v141h289v145h-432v-720h432z" />
    <glyph glyph-name="afii10022" unicode="&#x415;" 
d="M432 0v142h-289v146h146v146h-146v141h289v145h-432v-720h432z" />
    <glyph glyph-name="afii10024" unicode="&#xc6;" horiz-adv-x="868" 
d="M0 288v-288h145v288h144v-288h144v288h144v-288h145v288h-145v146h-144v286h-144v-286h-144v286h-145v-286h145v-146h-145zM722 434v286h-145v-286h145z" />
    <glyph glyph-name="afii10024" unicode="&#x416;" horiz-adv-x="868" 
d="M0 288v-288h145v288h144v-288h144v288h144v-288h145v288h-145v146h-144v286h-144v-286h-144v286h-145v-286h145v-146h-145zM722 434v286h-145v-286h145z" />
    <glyph glyph-name="afii10025" unicode="&#xc7;" horiz-adv-x="721" 
d="M288 575v-141h-288v-146h429v-146h-429v-142h575v434h-146v286h-429v-145h288z" />
    <glyph glyph-name="afii10025" unicode="&#x417;" horiz-adv-x="721" 
d="M288 575v-141h-288v-146h429v-146h-429v-142h575v434h-146v286h-429v-145h288z" />
    <glyph glyph-name="afii10026" unicode="&#xc8;" horiz-adv-x="724" 
d="M0 0h146v142h144v146h-144v432h-146v-720zM432 288v-288h146v720h-146v-286h-142v-146h142z" />
    <glyph glyph-name="afii10026" unicode="&#x418;" horiz-adv-x="724" 
d="M0 0h146v142h144v146h-144v432h-146v-720zM432 288v-288h146v720h-146v-286h-142v-146h142z" />
    <glyph glyph-name="afii10027" unicode="&#xc9;" horiz-adv-x="724" 
d="M146 288v432h-146v-720h146v142h134v146h-134zM578 0v720h-146v-286h-152v-146h152v-288h146zM367 646v144h-142v-144h142z" />
    <glyph glyph-name="afii10027" unicode="&#x419;" horiz-adv-x="724" 
d="M146 288v432h-146v-720h146v142h134v146h-134zM578 0v720h-146v-286h-152v-146h152v-288h146zM367 646v144h-142v-144h142z" />
    <glyph glyph-name="afii10028" unicode="&#xca;" horiz-adv-x="579" 
d="M433 0v288h-145v146h-144v286h-144v-720h144v288h144v-288h145zM433 434v286h-145v-286h145z" />
    <glyph glyph-name="afii10028" unicode="&#x41a;" horiz-adv-x="579" 
d="M433 0v288h-145v146h-144v286h-144v-720h144v288h144v-288h145zM433 434v286h-145v-286h145z" />
    <glyph glyph-name="afii10029" unicode="&#xcb;" 
d="M432 0v720h-286v-145h144v-575h142zM146 0v575h-146v-575h146z" />
    <glyph glyph-name="afii10029" unicode="&#x41b;" 
d="M432 0v720h-286v-145h144v-575h142zM146 0v575h-146v-575h146z" />
    <glyph glyph-name="afii10030" unicode="&#xcc;" horiz-adv-x="864" 
d="M718 0v720h-718v-720h142v575h144v-575h144v575h146v-575h142z" />
    <glyph glyph-name="afii10030" unicode="&#x41c;" horiz-adv-x="864" 
d="M718 0v720h-718v-720h142v575h144v-575h144v575h146v-575h142z" />
    <glyph glyph-name="afii10031" unicode="&#xcd;" 
d="M432 0v720h-144v-286h-146v286h-142v-720h142v288h146v-288h144z" />
    <glyph glyph-name="afii10031" unicode="&#x41d;" 
d="M432 0v720h-144v-286h-146v286h-142v-720h142v288h146v-288h144z" />
    <glyph glyph-name="afii10032" unicode="&#xce;" 
d="M432 0v720h-432v-720h432zM290 142h-145v433h145v-433z" />
    <glyph glyph-name="afii10032" unicode="&#x41e;" 
d="M432 0v720h-432v-720h432zM290 142h-145v433h145v-433z" />
    <glyph glyph-name="afii10033" unicode="&#xcf;" 
d="M432 0v720h-432v-720h146v575h144v-575h142z" />
    <glyph glyph-name="afii10033" unicode="&#x41f;" 
d="M432 0v720h-432v-720h146v575h144v-575h142z" />
    <glyph glyph-name="afii10034" unicode="&#xd0;" horiz-adv-x="579" 
d="M433 288v432h-433v-720h144v288h289zM290 434h-146v141h146v-141z" />
    <glyph glyph-name="afii10034" unicode="&#x420;" horiz-adv-x="579" 
d="M433 288v432h-433v-720h144v288h289zM290 434h-146v141h146v-141z" />
    <glyph glyph-name="afii10035" unicode="&#xd1;" horiz-adv-x="576" 
d="M430 0v142h-287v433h287v145h-430v-720h430z" />
    <glyph glyph-name="afii10035" unicode="&#x421;" horiz-adv-x="576" 
d="M430 0v142h-287v433h287v145h-430v-720h430z" />
    <glyph glyph-name="afii10036" unicode="&#xd2;" horiz-adv-x="576" 
d="M0 720v-145h146v-575h142v575h142v145h-430z" />
    <glyph glyph-name="afii10036" unicode="&#x422;" horiz-adv-x="576" 
d="M0 720v-145h146v-575h142v575h142v145h-430z" />
    <glyph glyph-name="afii10037" unicode="&#xd3;" 
d="M432 142v578h-144v-286h-146v286h-142v-432h288v-146h144zM288 0v142h-288v-142h288z" />
    <glyph glyph-name="afii10037" unicode="&#x423;" 
d="M432 142v578h-144v-286h-146v286h-142v-432h288v-146h144zM288 0v142h-288v-142h288z" />
    <glyph glyph-name="afii10038" unicode="&#xd4;" horiz-adv-x="870" 
d="M0 640v-432h290v-208h144v208h290v432h-290v80h-144v-80h-290zM144 354v143h146v-143h-146zM580 497v-143h-146v143h146z" />
    <glyph glyph-name="afii10038" unicode="&#x424;" horiz-adv-x="870" 
d="M0 640v-432h290v-208h144v208h290v432h-290v80h-144v-80h-290zM144 354v143h146v-143h-146zM580 497v-143h-146v143h146z" />
    <glyph glyph-name="afii10039" unicode="&#xd5;" horiz-adv-x="579" 
d="M433 0v288h-145v146h-144v286h-144v-286h144v-146h144v-288h145zM0 288v-288h144v288h-144zM433 434v286h-145v-286h145z" />
    <glyph glyph-name="afii10039" unicode="&#x425;" horiz-adv-x="579" 
d="M433 0v288h-145v146h-144v286h-144v-286h144v-146h144v-288h145zM0 288v-288h144v288h-144zM433 434v286h-145v-286h145z" />
    <glyph glyph-name="afii10040" unicode="&#xd6;" horiz-adv-x="721" 
d="M432 720h-142v-578h-145v578h-145v-720h575v142h-143v578z" />
    <glyph glyph-name="afii10040" unicode="&#x426;" horiz-adv-x="721" 
d="M432 720h-142v-578h-145v578h-145v-720h575v142h-143v578z" />
    <glyph glyph-name="afii10041" unicode="&#xd7;" 
d="M432 0v720h-144v-286h-146v286h-142v-432h288v-288h144z" />
    <glyph glyph-name="afii10041" unicode="&#x427;" 
d="M432 0v720h-144v-286h-146v286h-142v-432h288v-288h144z" />
    <glyph glyph-name="afii10042" unicode="&#xd8;" horiz-adv-x="864" 
d="M718 0v720h-142v-578h-144v578h-144v-578h-146v578h-142v-720h718z" />
    <glyph glyph-name="afii10042" unicode="&#x428;" horiz-adv-x="864" 
d="M718 0v720h-142v-578h-144v578h-144v-578h-146v578h-142v-720h718z" />
    <glyph glyph-name="afii10043" unicode="&#xd9;" horiz-adv-x="1004" 
d="M858 0v142h-140v578h-142v-578h-144v578h-144v-578h-146v578h-142v-720h858z" />
    <glyph glyph-name="afii10043" unicode="&#x429;" horiz-adv-x="1004" 
d="M858 0v142h-140v578h-142v-578h-144v578h-144v-578h-146v578h-142v-720h858z" />
    <glyph glyph-name="afii10044" unicode="&#xda;" horiz-adv-x="728" 
d="M582 0v434h-290v286h-292v-145h146v-575h436zM438 142h-146v146h146v-146z" />
    <glyph glyph-name="afii10044" unicode="&#x42a;" horiz-adv-x="728" 
d="M582 0v434h-290v286h-292v-145h146v-575h436zM438 142h-146v146h146v-146z" />
    <glyph glyph-name="afii10045" unicode="&#xdb;" horiz-adv-x="796" 
d="M436 0v434h-288v286h-148v-720h436zM650 0v720h-142v-720h142zM292 142h-144v146h144v-146z" />
    <glyph glyph-name="afii10045" unicode="&#x42b;" horiz-adv-x="796" 
d="M436 0v434h-288v286h-148v-720h436zM650 0v720h-142v-720h142zM292 142h-144v146h144v-146z" />
    <glyph glyph-name="afii10046" unicode="&#xdc;" horiz-adv-x="582" 
d="M436 0v434h-288v286h-148v-720h436zM292 142h-144v146h144v-146z" />
    <glyph glyph-name="afii10046" unicode="&#x42c;" horiz-adv-x="582" 
d="M436 0v434h-288v286h-148v-720h436zM292 142h-144v146h144v-146z" />
    <glyph glyph-name="afii10047" unicode="&#xdd;" 
d="M432 142v433h-143v145h-289v-145h289v-141h-146v-146h146v-146h143zM289 0v142h-289v-142h289z" />
    <glyph glyph-name="afii10047" unicode="&#x42d;" 
d="M432 142v433h-143v145h-289v-145h289v-141h-146v-146h146v-146h143zM289 0v142h-289v-142h289z" />
    <glyph glyph-name="afii10048" unicode="&#xde;" horiz-adv-x="792" 
d="M646 0v720h-432v-286h-72v286h-142v-720h142v288h72v-288h432zM504 142h-145v433h145v-433z" />
    <glyph glyph-name="afii10048" unicode="&#x42e;" horiz-adv-x="792" 
d="M646 0v720h-432v-286h-72v286h-142v-720h142v288h72v-288h432zM504 142h-145v433h145v-433z" />
    <glyph glyph-name="afii10049" unicode="&#xdf;" horiz-adv-x="580" 
d="M434 0v720h-434v-286h146v-146h144v-288h144zM146 0v288h-146v-288h146zM290 434h-144v141h144v-141z" />
    <glyph glyph-name="afii10049" unicode="&#x42f;" horiz-adv-x="580" 
d="M434 0v720h-434v-286h146v-146h144v-288h144zM146 0v288h-146v-288h146zM290 434h-144v141h144v-141z" />
    <glyph glyph-name="afii10065" unicode="&#xe0;" 
d="M432 0v720h-432v-720h142v288h144v-288h146zM286 434h-144v141h144v-141z" />
    <glyph glyph-name="afii10065" unicode="&#x430;" 
d="M432 0v720h-432v-720h142v288h144v-288h146zM286 434h-144v141h144v-141z" />
    <glyph glyph-name="afii10066" unicode="&#xe1;" horiz-adv-x="721" 
d="M575 0v434h-431v141h285v145h-429v-720h575zM429 142h-285v146h285v-146z" />
    <glyph glyph-name="afii10066" unicode="&#x431;" horiz-adv-x="721" 
d="M575 0v434h-431v141h285v145h-429v-720h575zM429 142h-285v146h285v-146z" />
    <glyph glyph-name="afii10067" unicode="&#xe2;" horiz-adv-x="721" 
d="M575 0v434h-146v286h-429v-720h575zM429 142h-287v146h287v-146zM288 434h-146v141h146v-141z" />
    <glyph glyph-name="afii10067" unicode="&#x432;" horiz-adv-x="721" 
d="M575 0v434h-146v286h-429v-720h575zM429 142h-287v146h287v-146zM288 434h-146v141h146v-141z" />
    <glyph glyph-name="afii10068" unicode="&#xe3;" 
d="M143 0v575h289v145h-432v-720h143z" />
    <glyph glyph-name="afii10068" unicode="&#x433;" 
d="M143 0v575h289v145h-432v-720h143z" />
    <glyph glyph-name="afii10069" unicode="&#xe4;" horiz-adv-x="861" 
d="M430 142h-145v433h-145v-433h-140v-142h715v142h-142v578h-288v-145h145v-433z" />
    <glyph glyph-name="afii10069" unicode="&#x434;" horiz-adv-x="861" 
d="M430 142h-145v433h-145v-433h-140v-142h715v142h-142v578h-288v-145h145v-433z" />
    <glyph glyph-name="afii10070" unicode="&#xe5;" 
d="M432 0v142h-289v146h146v146h-146v141h289v145h-432v-720h432z" />
    <glyph glyph-name="afii10070" unicode="&#x435;" 
d="M432 0v142h-289v146h146v146h-146v141h289v145h-432v-720h432z" />
    <glyph glyph-name="afii10072" unicode="&#xe6;" horiz-adv-x="868" 
d="M0 288v-288h145v288h144v-288h144v288h144v-288h145v288h-145v146h-144v286h-144v-286h-144v286h-145v-286h145v-146h-145zM722 434v286h-145v-286h145z" />
    <glyph glyph-name="afii10072" unicode="&#x436;" horiz-adv-x="868" 
d="M0 288v-288h145v288h144v-288h144v288h144v-288h145v288h-145v146h-144v286h-144v-286h-144v286h-145v-286h145v-146h-145zM722 434v286h-145v-286h145z" />
    <glyph glyph-name="afii10073" unicode="&#xe7;" horiz-adv-x="721" 
d="M288 575v-141h-288v-146h429v-146h-429v-142h575v434h-146v286h-429v-145h288z" />
    <glyph glyph-name="afii10073" unicode="&#x437;" horiz-adv-x="721" 
d="M288 575v-141h-288v-146h429v-146h-429v-142h575v434h-146v286h-429v-145h288z" />
    <glyph glyph-name="afii10074" unicode="&#xe8;" horiz-adv-x="724" 
d="M0 0h146v142h144v146h-144v432h-146v-720zM432 288v-288h146v720h-146v-286h-142v-146h142z" />
    <glyph glyph-name="afii10074" unicode="&#x438;" horiz-adv-x="724" 
d="M0 0h146v142h144v146h-144v432h-146v-720zM432 288v-288h146v720h-146v-286h-142v-146h142z" />
    <glyph glyph-name="afii10075" unicode="&#xe9;" horiz-adv-x="724" 
d="M146 288v432h-146v-720h146v142h134v146h-134zM578 0v720h-146v-286h-152v-146h152v-288h146zM367 646v144h-142v-144h142z" />
    <glyph glyph-name="afii10075" unicode="&#x439;" horiz-adv-x="724" 
d="M146 288v432h-146v-720h146v142h134v146h-134zM578 0v720h-146v-286h-152v-146h152v-288h146zM367 646v144h-142v-144h142z" />
    <glyph glyph-name="afii10076" unicode="&#xea;" horiz-adv-x="579" 
d="M433 0v288h-145v146h-144v286h-144v-720h144v288h144v-288h145zM433 434v286h-145v-286h145z" />
    <glyph glyph-name="afii10076" unicode="&#x43a;" horiz-adv-x="579" 
d="M433 0v288h-145v146h-144v286h-144v-720h144v288h144v-288h145zM433 434v286h-145v-286h145z" />
    <glyph glyph-name="afii10077" unicode="&#xeb;" 
d="M432 0v720h-286v-145h144v-575h142zM146 0v575h-146v-575h146z" />
    <glyph glyph-name="afii10077" unicode="&#x43b;" 
d="M432 0v720h-286v-145h144v-575h142zM146 0v575h-146v-575h146z" />
    <glyph glyph-name="afii10078" unicode="&#xec;" horiz-adv-x="864" 
d="M718 0v720h-718v-720h142v575h144v-575h144v575h146v-575h142z" />
    <glyph glyph-name="afii10078" unicode="&#x43c;" horiz-adv-x="864" 
d="M718 0v720h-718v-720h142v575h144v-575h144v575h146v-575h142z" />
    <glyph glyph-name="afii10079" unicode="&#xed;" 
d="M432 0v720h-144v-286h-146v286h-142v-720h142v288h146v-288h144z" />
    <glyph glyph-name="afii10079" unicode="&#x43d;" 
d="M432 0v720h-144v-286h-146v286h-142v-720h142v288h146v-288h144z" />
    <glyph glyph-name="afii10080" unicode="&#xee;" 
d="M432 0v720h-432v-720h432zM290 142h-145v433h145v-433z" />
    <glyph glyph-name="afii10080" unicode="&#x43e;" 
d="M432 0v720h-432v-720h432zM290 142h-145v433h145v-433z" />
    <glyph glyph-name="afii10081" unicode="&#xef;" 
d="M432 0v720h-432v-720h146v575h144v-575h142z" />
    <glyph glyph-name="afii10081" unicode="&#x43f;" 
d="M432 0v720h-432v-720h146v575h144v-575h142z" />
    <glyph glyph-name="afii10082" unicode="&#xf0;" horiz-adv-x="579" 
d="M433 288v432h-433v-720h144v288h289zM290 434h-146v141h146v-141z" />
    <glyph glyph-name="afii10082" unicode="&#x440;" horiz-adv-x="579" 
d="M433 288v432h-433v-720h144v288h289zM290 434h-146v141h146v-141z" />
    <glyph glyph-name="afii10083" unicode="&#xf1;" horiz-adv-x="576" 
d="M430 0v142h-287v433h287v145h-430v-720h430z" />
    <glyph glyph-name="afii10083" unicode="&#x441;" horiz-adv-x="576" 
d="M430 0v142h-287v433h287v145h-430v-720h430z" />
    <glyph glyph-name="afii10084" unicode="&#xf2;" horiz-adv-x="576" 
d="M0 720v-145h146v-575h142v575h142v145h-430z" />
    <glyph glyph-name="afii10084" unicode="&#x442;" horiz-adv-x="576" 
d="M0 720v-145h146v-575h142v575h142v145h-430z" />
    <glyph glyph-name="afii10085" unicode="&#xf3;" 
d="M432 142v578h-144v-286h-146v286h-142v-432h288v-146h144zM288 0v142h-288v-142h288z" />
    <glyph glyph-name="afii10085" unicode="&#x443;" 
d="M432 142v578h-144v-286h-146v286h-142v-432h288v-146h144zM288 0v142h-288v-142h288z" />
    <glyph glyph-name="afii10086" unicode="&#xf4;" horiz-adv-x="870" 
d="M0 640v-432h290v-208h144v208h290v432h-290v80h-144v-80h-290zM144 354v143h146v-143h-146zM580 497v-143h-146v143h146z" />
    <glyph glyph-name="afii10086" unicode="&#x444;" horiz-adv-x="870" 
d="M0 640v-432h290v-208h144v208h290v432h-290v80h-144v-80h-290zM144 354v143h146v-143h-146zM580 497v-143h-146v143h146z" />
    <glyph glyph-name="afii10087" unicode="&#xf5;" horiz-adv-x="579" 
d="M433 0v288h-145v146h-144v286h-144v-286h144v-146h144v-288h145zM0 288v-288h144v288h-144zM433 434v286h-145v-286h145z" />
    <glyph glyph-name="afii10087" unicode="&#x445;" horiz-adv-x="579" 
d="M433 0v288h-145v146h-144v286h-144v-286h144v-146h144v-288h145zM0 288v-288h144v288h-144zM433 434v286h-145v-286h145z" />
    <glyph glyph-name="afii10088" unicode="&#xf6;" horiz-adv-x="721" 
d="M432 720h-142v-578h-145v578h-145v-720h575v142h-143v578z" />
    <glyph glyph-name="afii10088" unicode="&#x446;" horiz-adv-x="721" 
d="M432 720h-142v-578h-145v578h-145v-720h575v142h-143v578z" />
    <glyph glyph-name="afii10089" unicode="&#xf7;" 
d="M432 0v720h-144v-286h-146v286h-142v-432h288v-288h144z" />
    <glyph glyph-name="afii10089" unicode="&#x447;" 
d="M432 0v720h-144v-286h-146v286h-142v-432h288v-288h144z" />
    <glyph glyph-name="afii10090" unicode="&#xf8;" horiz-adv-x="864" 
d="M718 0v720h-142v-578h-144v578h-144v-578h-146v578h-142v-720h718z" />
    <glyph glyph-name="afii10090" unicode="&#x448;" horiz-adv-x="864" 
d="M718 0v720h-142v-578h-144v578h-144v-578h-146v578h-142v-720h718z" />
    <glyph glyph-name="afii10091" unicode="&#xf9;" horiz-adv-x="1004" 
d="M858 0v142h-140v578h-142v-578h-144v578h-144v-578h-146v578h-142v-720h858z" />
    <glyph glyph-name="afii10091" unicode="&#x449;" horiz-adv-x="1004" 
d="M858 0v142h-140v578h-142v-578h-144v578h-144v-578h-146v578h-142v-720h858z" />
    <glyph glyph-name="afii10092" unicode="&#xfa;" horiz-adv-x="728" 
d="M582 0v434h-290v286h-292v-145h146v-575h436zM438 142h-146v146h146v-146z" />
    <glyph glyph-name="afii10092" unicode="&#x44a;" horiz-adv-x="728" 
d="M582 0v434h-290v286h-292v-145h146v-575h436zM438 142h-146v146h146v-146z" />
    <glyph glyph-name="afii10093" unicode="&#xfb;" horiz-adv-x="796" 
d="M436 0v434h-288v286h-148v-720h436zM650 0v720h-142v-720h142zM292 142h-144v146h144v-146z" />
    <glyph glyph-name="afii10093" unicode="&#x44b;" horiz-adv-x="796" 
d="M436 0v434h-288v286h-148v-720h436zM650 0v720h-142v-720h142zM292 142h-144v146h144v-146z" />
    <glyph glyph-name="afii10094" unicode="&#xfc;" horiz-adv-x="582" 
d="M436 0v434h-288v286h-148v-720h436zM292 142h-144v146h144v-146z" />
    <glyph glyph-name="afii10094" unicode="&#x44c;" horiz-adv-x="582" 
d="M436 0v434h-288v286h-148v-720h436zM292 142h-144v146h144v-146z" />
    <glyph glyph-name="afii10095" unicode="&#xfd;" 
d="M432 142v433h-143v145h-289v-145h289v-141h-146v-146h146v-146h143zM289 0v142h-289v-142h289z" />
    <glyph glyph-name="afii10095" unicode="&#x44d;" 
d="M432 142v433h-143v145h-289v-145h289v-141h-146v-146h146v-146h143zM289 0v142h-289v-142h289z" />
    <glyph glyph-name="afii10096" unicode="&#xfe;" horiz-adv-x="792" 
d="M646 0v720h-432v-286h-72v286h-142v-720h142v288h72v-288h432zM504 142h-145v433h145v-433z" />
    <glyph glyph-name="afii10096" unicode="&#x44e;" horiz-adv-x="792" 
d="M646 0v720h-432v-286h-72v286h-142v-720h142v288h72v-288h432zM504 142h-145v433h145v-433z" />
    <glyph glyph-name="afii10097" unicode="&#xff;" horiz-adv-x="580" 
d="M434 0v720h-434v-286h146v-146h144v-288h144zM146 0v288h-146v-288h146zM290 434h-144v141h144v-141z" />
    <glyph glyph-name="afii10097" unicode="&#x44f;" horiz-adv-x="580" 
d="M434 0v720h-434v-286h146v-146h144v-288h144zM146 0v288h-146v-288h146zM290 434h-144v141h144v-141z" />
    <glyph glyph-name="FL0061h" 
d="M432 0v720h-432v-720h142v288h144v-288h146zM286 434h-144v141h144v-141z" />
    <glyph glyph-name="FL0062h" horiz-adv-x="721" 
d="M575 0v434h-146v286h-429v-720h575zM429 142h-287v146h287v-146zM288 434h-146v141h146v-141z" />
    <glyph glyph-name="FL0063h" horiz-adv-x="576" 
d="M430 0v142h-287v433h287v145h-430v-720h430z" />
    <glyph glyph-name="FL0064h" horiz-adv-x="574" 
d="M144 142v433h142v-433h142v433h-142v145h-286v-720h286v142h-142z" />
    <glyph glyph-name="FL0065h" horiz-adv-x="579" 
d="M433 0v142h-290v146h147v146h-147v141h290v145h-433v-720h433z" />
    <glyph glyph-name="FL0066h" horiz-adv-x="579" 
d="M142 0v288h291v146h-291v141h291v145h-433v-720h142z" />
    <glyph glyph-name="FL0067h" horiz-adv-x="724" 
d="M578 0v434h-291v-146h145v-146h-288v433h434v145h-578v-720h578z" />
    <glyph glyph-name="FL0068h" 
d="M432 0v720h-144v-286h-146v286h-142v-720h142v288h146v-288h144z" />
    <glyph glyph-name="FL0069h" horiz-adv-x="290" 
d="M144 0v720h-144v-720h144z" />
    <glyph glyph-name="FL006Ah" horiz-adv-x="577" 
d="M431 0v720h-431v-145h286v-433h-142v146h-144v-288h431z" />
    <glyph glyph-name="FL006Bh" horiz-adv-x="579" 
d="M433 0v288h-145v146h-144v286h-144v-720h144v288h144v-288h145zM433 434v286h-145v-286h145z" />
    <glyph glyph-name="FL006Ch" 
d="M432 0v142h-288v578h-144v-720h432z" />
    <glyph glyph-name="FL006Dh" horiz-adv-x="863" 
d="M0 720v-720h142v434h146v-146h144v146h-144v141h-146v145h-142zM576 434v-434h141v720h-141v-145h-144v-141h144z" />
    <glyph glyph-name="FL006Eh" horiz-adv-x="724" 
d="M578 0v720h-144v-286h-144v141h-144v145h-146v-720h146v434h144v-146h144v-288h144z" />
    <glyph glyph-name="FL006Fh" 
d="M432 0v720h-432v-720h432zM290 142h-145v433h145v-433z" />
    <glyph glyph-name="FL0070h" horiz-adv-x="579" 
d="M433 288v432h-433v-720h144v288h289zM286 434h-142v141h142v-141z" />
    <glyph glyph-name="FL0071h" horiz-adv-x="721" 
d="M575 0v142h-143v578h-432v-720h575zM290 142h-145v433h145v-433z" />
    <glyph glyph-name="FL0072h" horiz-adv-x="580" 
d="M434 0v288h-146v146h-144v141h144v-141h146v286h-434v-720h144v288h144v-288h146z" />
    <glyph glyph-name="FL0073h" 
d="M432 0v434h-286v141h286v145h-432v-432h290v-146h-290v-142h432z" />
    <glyph glyph-name="FL0074h" horiz-adv-x="576" 
d="M288 0v575h142v145h-430v-145h146v-575h142z" />
    <glyph glyph-name="FL0075h" 
d="M432 0v720h-142v-578h-146v578h-144v-720h432z" />
    <glyph glyph-name="FL0076h" 
d="M288 0v142h144v578h-144v-432h-146v432h-142v-578h142v-142h146z" />
    <glyph glyph-name="FL0077h" horiz-adv-x="863" 
d="M717 0v720h-142v-432h-146v146h-144v-146h144v-146h146v-142h142zM141 288v432h-141v-720h141v142h144v146h-144z" />
    <glyph glyph-name="FL0078h" horiz-adv-x="579" 
d="M433 0v288h-145v146h-144v286h-144v-286h144v-146h144v-288h145zM144 0v288h-144v-288h144zM433 434v286h-145v-286h145z" />
    <glyph glyph-name="FL0079h" 
d="M288 0v288h144v432h-144v-286h-146v286h-142v-432h142v-288h146z" />
    <glyph glyph-name="FL007Ah" horiz-adv-x="579" 
d="M433 434v286h-433v-145h288v-141h145zM433 0v142h-287v146h-146v-288h433zM288 288v146h-142v-146h142z" />
    <glyph glyph-name="FL0410h" 
d="M0 720v-720h142v288h144v-288h146v720h-432zM142 575h144v-141h-144v141z" />
    <glyph glyph-name="FL0412h" horiz-adv-x="721" 
d="M575 0v434h-146v286h-429v-720h575zM429 142h-287v146h287v-146zM288 434h-146v141h146v-141z" />
    <glyph glyph-name="FL0421h" horiz-adv-x="576" 
d="M430 0v142h-287v433h287v145h-430v-720h430z" />
    <glyph glyph-name="FL0415h" 
d="M432 0v142h-289v146h146v146h-146v141h289v145h-432v-720h432z" />
    <glyph glyph-name="FL041Dh" 
d="M432 0v720h-144v-286h-146v286h-142v-720h142v288h146v-288h144z" />
    <glyph glyph-name="FL041Ah" horiz-adv-x="579" 
d="M433 0v288h-145v146h-144v286h-144v-720h144v288h144v-288h145zM433 434v286h-145v-286h145z" />
    <glyph glyph-name="FL041Ch" horiz-adv-x="864" 
d="M718 0v720h-718v-720h142v575h144v-575h144v575h146v-575h142z" />
    <glyph glyph-name="FL041Fh" 
d="M432 0v720h-432v-720h146v575h144v-575h142z" />
    <glyph glyph-name="FL041Eh" 
d="M432 0v720h-432v-720h432zM290 142h-145v433h145v-433z" />
    <glyph glyph-name="FL0420h" horiz-adv-x="579" 
d="M433 288v432h-433v-720h144v288h289zM290 434h-146v141h146v-141z" />
    <glyph glyph-name="FL0422h" horiz-adv-x="576" 
d="M0 720v-145h146v-575h142v575h142v145h-430z" />
    <glyph glyph-name="FL0428h" horiz-adv-x="864" 
d="M718 0v720h-142v-578h-144v578h-144v-578h-146v578h-142v-720h718z" />
    <glyph glyph-name="FL0425h" horiz-adv-x="579" 
d="M433 0v288h-145v146h-144v286h-144v-286h144v-146h144v-288h145zM0 288v-288h144v288h-144zM433 434v286h-145v-286h145z" />
    <glyph glyph-name="FL0411h" horiz-adv-x="721" 
d="M575 0v434h-431v141h285v145h-429v-720h575zM429 142h-285v146h285v-146z" />
    <glyph glyph-name="FL0413h" 
d="M143 0v575h289v145h-432v-720h143z" />
    <glyph glyph-name="FL0416h" horiz-adv-x="868" 
d="M0 288v-288h145v288h144v-288h144v288h144v-288h145v288h-145v146h-144v286h-144v-286h-144v286h-145v-286h145v-146h-145zM722 434v286h-145v-286h145z" />
    <glyph glyph-name="FL0417h" horiz-adv-x="721" 
d="M288 575v-141h-288v-146h429v-146h-429v-142h575v434h-146v286h-429v-145h288z" />
    <glyph glyph-name="FL0427h" 
d="M432 0v720h-144v-286h-146v286h-142v-432h288v-288h144z" />
    <glyph glyph-name="FL042Ch" horiz-adv-x="582" 
d="M436 0v434h-288v286h-148v-720h436zM292 142h-144v146h144v-146z" />
    <glyph glyph-name="FL042Bh" horiz-adv-x="796" 
d="M436 0v434h-288v286h-148v-720h436zM650 0v720h-142v-720h142zM292 142h-144v146h144v-146z" />
    <glyph glyph-name="FL042Ah" horiz-adv-x="728" 
d="M582 0v434h-290v286h-292v-145h146v-575h436zM438 142h-146v146h146v-146z" />
    <glyph glyph-name="FL041Bh" 
d="M432 0v720h-286v-145h144v-575h142zM146 0v575h-146v-575h146z" />
    <glyph glyph-name="FL042Fh" horiz-adv-x="580" 
d="M434 0v720h-434v-286h146v-146h144v-288h144zM146 0v288h-146v-288h146zM290 434h-144v141h144v-141z" />
    <glyph glyph-name="FL042Eh" horiz-adv-x="792" 
d="M646 0v720h-432v-286h-72v286h-142v-720h142v288h72v-288h432zM504 142h-145v433h145v-433z" />
    <glyph glyph-name="FL0423h" 
d="M432 142v578h-144v-286h-146v286h-142v-432h288v-146h144zM288 0v142h-288v-142h288z" />
    <glyph glyph-name="FL042Dh" 
d="M432 142v433h-143v145h-289v-145h289v-141h-146v-146h146v-146h143zM289 0v142h-289v-142h289z" />
    <glyph glyph-name="FL0414h" horiz-adv-x="861" 
d="M430 142h-145v433h-145v-433h-140v-142h715v142h-142v578h-288v-145h145v-433z" />
    <glyph glyph-name="FL0418h" horiz-adv-x="724" 
d="M0 0h146v142h144v146h-144v432h-146v-720zM432 288v-288h146v720h-146v-286h-142v-146h142z" />
    <glyph glyph-name="FL0419h" horiz-adv-x="724" 
d="M146 288v432h-146v-720h146v142h134v146h-134zM578 0v720h-146v-286h-152v-146h152v-288h146zM367 646v144h-142v-144h142z" />
    <glyph glyph-name="FL0426h" horiz-adv-x="721" 
d="M432 720h-142v-578h-145v578h-145v-720h575v142h-143v578z" />
    <glyph glyph-name="FL0429h" horiz-adv-x="1004" 
d="M858 0v142h-140v578h-142v-578h-144v578h-144v-578h-146v578h-142v-720h858z" />
    <glyph glyph-name="FL0424h" horiz-adv-x="870" 
d="M0 640v-432h290v-208h144v208h290v432h-290v80h-144v-80h-290zM144 354v143h146v-143h-146zM580 497v-143h-146v143h146z" />
    <glyph glyph-name="FL0430h" 
d="M432 0v720h-432v-720h142v288h144v-288h146zM286 434h-144v141h144v-141z" />
    <glyph glyph-name="FL0431h" horiz-adv-x="721" 
d="M575 0v434h-431v141h285v145h-429v-720h575zM429 142h-285v146h285v-146z" />
    <glyph glyph-name="FL0432h" horiz-adv-x="721" 
d="M575 0v434h-146v286h-429v-720h575zM429 142h-287v146h287v-146zM288 434h-146v141h146v-141z" />
    <glyph glyph-name="FL0433h" 
d="M143 0v575h289v145h-432v-720h143z" />
    <glyph glyph-name="FL0434h" horiz-adv-x="861" 
d="M430 142h-145v433h-145v-433h-140v-142h715v142h-142v578h-288v-145h145v-433z" />
    <glyph glyph-name="FL0435h" 
d="M432 0v142h-289v146h146v146h-146v141h289v145h-432v-720h432z" />
    <glyph glyph-name="FL0436h" horiz-adv-x="868" 
d="M0 288v-288h145v288h144v-288h144v288h144v-288h145v288h-145v146h-144v286h-144v-286h-144v286h-145v-286h145v-146h-145zM722 434v286h-145v-286h145z" />
    <glyph glyph-name="FL0437h" horiz-adv-x="721" 
d="M288 575v-141h-288v-146h429v-146h-429v-142h575v434h-146v286h-429v-145h288z" />
    <glyph glyph-name="FL0438h" horiz-adv-x="724" 
d="M0 0h146v142h144v146h-144v432h-146v-720zM432 288v-288h146v720h-146v-286h-142v-146h142z" />
    <glyph glyph-name="FL0439h" horiz-adv-x="724" 
d="M146 288v432h-146v-720h146v142h134v146h-134zM578 0v720h-146v-286h-152v-146h152v-288h146zM367 646v144h-142v-144h142z" />
    <glyph glyph-name="FL043Ah" horiz-adv-x="579" 
d="M433 0v288h-145v146h-144v286h-144v-720h144v288h144v-288h145zM433 434v286h-145v-286h145z" />
    <glyph glyph-name="FL043Bh" 
d="M432 0v720h-286v-145h144v-575h142zM146 0v575h-146v-575h146z" />
    <glyph glyph-name="FL043Ch" horiz-adv-x="864" 
d="M718 0v720h-718v-720h142v575h144v-575h144v575h146v-575h142z" />
    <glyph glyph-name="FL043Dh" 
d="M432 0v720h-144v-286h-146v286h-142v-720h142v288h146v-288h144z" />
    <glyph glyph-name="FL043Eh" 
d="M432 0v720h-432v-720h432zM290 142h-145v433h145v-433z" />
    <glyph glyph-name="FL043Fh" 
d="M432 0v720h-432v-720h146v575h144v-575h142z" />
    <glyph glyph-name="FL0440h" horiz-adv-x="579" 
d="M433 288v432h-433v-720h144v288h289zM290 434h-146v141h146v-141z" />
    <glyph glyph-name="FL0441h" horiz-adv-x="576" 
d="M430 0v142h-287v433h287v145h-430v-720h430z" />
    <glyph glyph-name="FL0442h" horiz-adv-x="576" 
d="M0 720v-145h146v-575h142v575h142v145h-430z" />
    <glyph glyph-name="FL0443h" 
d="M432 142v578h-144v-286h-146v286h-142v-432h288v-146h144zM288 0v142h-288v-142h288z" />
    <glyph glyph-name="FL0444h" horiz-adv-x="870" 
d="M0 640v-432h290v-208h144v208h290v432h-290v80h-144v-80h-290zM144 354v143h146v-143h-146zM580 497v-143h-146v143h146z" />
    <glyph glyph-name="FL0445h" horiz-adv-x="579" 
d="M433 0v288h-145v146h-144v286h-144v-286h144v-146h144v-288h145zM0 288v-288h144v288h-144zM433 434v286h-145v-286h145z" />
    <glyph glyph-name="FL0446h" horiz-adv-x="721" 
d="M432 720h-142v-578h-145v578h-145v-720h575v142h-143v578z" />
    <glyph glyph-name="FL0447h" 
d="M432 0v720h-144v-286h-146v286h-142v-432h288v-288h144z" />
    <glyph glyph-name="FL0448h" horiz-adv-x="864" 
d="M718 0v720h-142v-578h-144v578h-144v-578h-146v578h-142v-720h718z" />
    <glyph glyph-name="FL0449h" horiz-adv-x="1004" 
d="M858 0v142h-140v578h-142v-578h-144v578h-144v-578h-146v578h-142v-720h858z" />
    <glyph glyph-name="FL044Ah" horiz-adv-x="728" 
d="M582 0v434h-290v286h-292v-145h146v-575h436zM438 142h-146v146h146v-146z" />
    <glyph glyph-name="FL044Bh" horiz-adv-x="796" 
d="M436 0v434h-288v286h-148v-720h436zM650 0v720h-142v-720h142zM292 142h-144v146h144v-146z" />
    <glyph glyph-name="FL044Ch" horiz-adv-x="582" 
d="M436 0v434h-288v286h-148v-720h436zM292 142h-144v146h144v-146z" />
    <glyph glyph-name="FL044Dh" 
d="M432 142v433h-143v145h-289v-145h289v-141h-146v-146h146v-146h143zM289 0v142h-289v-142h289z" />
    <glyph glyph-name="FL044Eh" horiz-adv-x="792" 
d="M646 0v720h-432v-286h-72v286h-142v-720h142v288h72v-288h432zM504 142h-145v433h145v-433z" />
    <glyph glyph-name="FL044Fh" horiz-adv-x="580" 
d="M434 0v720h-434v-286h146v-146h144v-288h144zM146 0v288h-146v-288h146zM290 434h-144v141h144v-141z" />
    <glyph glyph-name="FL0451h" 
d="M0 720v-720h432v142h-289v146h146v146h-146v141h289v145h-432zM290 942v-144h142v144h-142zM0 942v-144h142v144h-142z" />
    <glyph glyph-name="FL0401h" 
d="M0 720v-720h432v142h-289v146h146v146h-146v141h289v145h-432zM290 942v-144h142v144h-142zM0 942v-144h142v144h-142z" />
    </font>
</defs>
</svg>
