<svg width="56" height="56" viewBox="0 0 56 56" fill="none" xmlns="http://www.w3.org/2000/svg">
<path d="M1 1H47.5858L55 8.41421V55H8.41421L1 47.5858V1Z" stroke="#FBB92C" stroke-width="2"/>
<path d="M20.3381 33.6412C26.2974 35.9669 31.3689 36.4199 37.1159 32.7999C37.0738 32.8631 35.9369 34.5473 32.9474 35.4104C33.579 36.2736 34.4422 37.263 34.4422 37.263C36.358 37.263 38.2317 36.7157 39.8527 35.663C41.1159 34.8209 41.8316 33.3683 41.6843 31.8525C41.4316 29.263 40.8211 26.7367 39.8738 24.3157C38.6738 21.1579 35.7896 18.9684 32.4422 18.6525C32.1474 18.6315 31.9369 18.6315 31.8106 18.6315L31.4738 18.9683C35.3264 20.063 37.2423 21.7683 37.2843 21.8315C31.3685 18.842 24.3791 18.7999 18.4211 21.7052C18.4211 21.7052 20.3159 19.8315 24.5053 18.842L24.2527 18.5894C23.8106 18.5894 23.3895 18.6315 22.9474 18.6946C19.8527 19.2209 17.2633 21.3472 16.1474 24.2735C15.179 26.7999 14.5474 29.4525 14.3159 32.1472C14.1896 33.5788 14.8633 34.9894 16.0422 35.8104C17.6001 36.842 19.4527 37.3894 21.3264 37.3894C21.3264 37.3894 22.0843 36.3999 22.8422 35.5157C20.0001 34.6735 18.8422 32.9894 18.8211 32.9262L19.356 33.1993C19.6758 33.3627 20.0036 33.5107 20.3381 33.6412ZM23.6422 31.8104C22.2738 31.7683 21.2001 30.6104 21.2422 29.2209C21.2843 27.9157 22.3369 26.863 23.6422 26.8209C25.0106 26.863 26.0843 28.0209 26.0422 29.4104C25.979 30.7157 24.9474 31.7684 23.6422 31.8104ZM32.2316 31.8104C30.8632 31.7683 29.7895 30.6104 29.8316 29.2209C29.8738 27.9157 30.9264 26.863 32.2316 26.8209C33.6001 26.863 34.6738 28.0209 34.6316 29.4104C34.5896 30.7157 33.5369 31.7684 32.2316 31.8104Z" fill="#FBB92C"/>
</svg>
