<svg width="56" height="56" viewBox="0 0 56 56" fill="none" xmlns="http://www.w3.org/2000/svg">
<path d="M1 1H47.5858L55 8.41421V55H8.41421L1 47.5858V1Z" stroke="#FBB92C" stroke-width="2"/>
<g clip-path="url(#clip0_54_59342)">
<path d="M28 40C34.629 40 40 34.629 40 28C40 21.371 34.629 16 28 16C21.371 16 16 21.371 16 28C16 34.629 21.371 40 28 40ZM21.491 27.74L33.061 23.279C33.598 23.085 34.067 23.41 33.893 24.222L33.894 24.221L31.924 33.502C31.778 34.16 31.387 34.32 30.84 34.01L27.84 31.799L26.393 33.193C26.233 33.353 26.098 33.488 25.788 33.488L26.001 30.435L31.561 25.412C31.803 25.199 31.507 25.079 31.188 25.291L24.317 29.617L21.355 28.693C20.712 28.489 20.698 28.05 21.491 27.74Z" fill="#FBB92C"/>
</g>
<defs>
<clipPath id="clip0_54_59342">
<rect width="24" height="24" fill="white" transform="translate(16 16)"/>
</clipPath>
</defs>
</svg>
