<svg width="112" height="20" viewBox="0 0 112 20" fill="none" xmlns="http://www.w3.org/2000/svg">
<g clip-path="url(#clip0_54_58928)">
<path d="M0 0V20H3.97754V7.94444H8.06713V12H12.1007V7.94444H8.06713V4.02778H3.97754V0H0ZM16.1343 7.94444V20H20.0838V0H16.1343V4.02778H12.1007V7.94444H16.1343ZM35.004 20V16.0556H26.8808V12H30.9984V7.94444H26.8808V4.02778H35.004V0H22.8753V20H35.004ZM44.9822 20V4.02778H48.9598V0H36.9151V4.02778H41.0047V20H44.9822ZM63.548 20V0H51.4473V20H55.4249V12H59.4584V20H63.548ZM59.4584 7.94444H55.4249V4.02778H59.4584V7.94444ZM78.9009 20V7.94444H70.8897V4.02778H78.9009V0H66.8002V12H74.9233V16.0556H66.8002V20H78.9009ZM93.5696 20V0H89.592V16.0556H85.5024V0H81.4689V20H93.5696ZM112 20V0H107.966V7.94444H103.933V4.02778H99.8993V0H95.8097V20H99.8993V7.94444H103.933V12H107.966V20H112Z" fill="#FBB92C"/>
</g>
<defs>
<clipPath id="clip0_54_58928">
<rect width="112" height="20" fill="white"/>
</clipPath>
</defs>
</svg>
